/* XPM */
static char * logo_0002_xpm[] = {
"18 13 9 1",
" 	c None",
".	c #839497",
"+	c #839496",
"@	c #586E75",
"#	c #839597",
"$	c #596F75",
"%	c #829496",
"&	c #596E76",
"*	c #596E75",
".++  @@@          ",
" +++ @@@          ",
"  +++ @@@         ",
"  +++#$@@@        ",
"   +++ @@@ +++++++",
"    +++ @@@ ++++++",
"    +++ @@@@      ",
"    ++% @@@@  ++++",
"   +++ @@@@@@ ++++",
"  +++%$@@@@@@@    ",
"  +++ @@@  @@@    ",
" +++ &@@    @@@   ",
".++  @@@    *@@   "};
