/* XPM */
static char * logo_0001_xpm[] = {
"28 20 9 1",
" 	c None",
".	c #B68900",
"+	c #B58900",
"@	c #D43683",
"#	c #D33682",
"$	c #D33681",
"%	c #B58800",
"&	c #D43682",
"*	c #D33683",
"                            ",
" .++++ @####                ",
"  +++++ ####$               ",
"   ++++  ####               ",
"   .++++ @####              ",
"    +++++ ####$             ",
"     ++++  ####  %%%%%%%%%  ",
"     .++++ @#### .+++++++++ ",
"      +++++ ####$ +++++++++ ",
"       ++++  ####           ",
"       ++++  #####          ",
"      +++++ ######$ +++++++ ",
"     .++++ @#######  ++++++ ",
"     ++++  ####&###* +%%%%  ",
"    +++++ ####* ####$       ",
"   .++++ @####   ####       ",
"   ++++  ####    @####      ",
"  +++++ ####*     ####$     ",
" .++++ @####       ####     ",
"                            "};
