/* XPM */
static char * logo_0003_xpm[] = {
"18 13 14 1",
" 	c None",
".	c #CB4B16",
"+	c #CC4A17",
"@	c #DC322F",
"#	c #DB322F",
"$	c #DB342E",
"%	c #DC332F",
"&	c #CD491A",
"*	c #D9372C",
"=	c #CB4B17",
"-	c #DB332E",
";	c #DB352D",
">	c #CC4A18",
",	c #DC3230",
"...+ @@#          ",
" ... $@@          ",
"  ..+ %@@         ",
"  ...&*@@@        ",
"   ..= $@@  ......",
"    ..+ @@- +.....",
"    ... @@@-      ",
"    ..+ @@@@  ....",
"   ..= $@@@@- =...",
"  ...&*@@@@@@;    ",
"  ..> %@@  @@@    ",
" ... $@@    @@@   ",
"...+ @@#    ,@@   "};
